<svg xmlns="http://www.w3.org/2000/svg" viewBox="0 0 360.37 236.24"><title>Zeichenfläche 1</title><polygon points="22.78 57.48 22.8 57.49 51.55 28.75 22.8 0 22.78 0.02 22.78 57.48" fill="#9ac33e"/><polygon points="80.25 57.49 80.26 57.48 51.52 28.73 22.77 57.48 22.79 57.49 80.25 57.49" fill="#f0ea23"/><polygon points="51.55 28.73 51.53 28.75 80.28 57.5 109.02 28.75 109.01 28.73 51.55 28.73" fill="#e8c328"/><polygon points="80.29 114.97 80.31 114.99 109.06 86.24 80.31 57.49 80.29 57.51 80.29 114.97" fill="#cb5c25"/><polygon points="137.8 115.02 137.81 115 109.07 86.25 80.32 115 80.34 115.02 137.8 115.02" fill="#9a4f9d"/><polygon points="109.06 28.75 109.04 28.73 80.29 57.48 109.04 86.22 109.06 86.21 109.06 28.75" fill="#d27925"/><polygon points="0.02 81.63 0 81.65 28.75 110.39 57.49 81.65 57.48 81.63 0.02 81.63" fill="#d8df26"/><polygon points="57.49 81.68 57.47 81.67 28.73 110.41 57.47 139.16 57.49 139.14 57.49 81.68" fill="#87bb44"/><polygon points="28.73 167.9 28.74 167.92 57.49 139.17 28.74 110.43 28.73 110.44 28.73 167.9" fill="#156a3a"/><polygon points="86.2 167.95 86.22 167.94 57.47 139.19 28.73 167.94 28.74 167.95 86.2 167.95" fill="#2ba5de"/><polygon points="57.44 139.19 57.42 139.21 86.17 167.95 114.91 139.21 114.9 139.19 57.44 139.19" fill="#486fb0"/><polygon points="114.88 139.21 114.86 139.19 86.11 167.94 114.86 196.68 114.88 196.66 114.88 139.21" fill="#1e4d8d"/><path d="M174.13,117l-1-.18q-.56-.09-1.16-.13l-1.21-.08-1.1,0a2.87,2.87,0,0,0-1.89.48,2.08,2.08,0,0,0-.54,1.62,2.87,2.87,0,0,0,.1.81,2.1,2.1,0,0,0,.48.78,8.59,8.59,0,0,0,1.08,1q.7.56,1.88,1.39.93.66,1.65,1.28a7.4,7.4,0,0,1,1.21,1.3,5,5,0,0,1,.73,1.51,7,7,0,0,1,.24,1.94q0,2.91-1.48,4.17a6.54,6.54,0,0,1-4.33,1.26,30.06,30.06,0,0,1-3.29-.17,19.56,19.56,0,0,1-2.35-.37q-.27,0-.27-.24l.21-2.7a.19.19,0,0,1,.21-.21q1.14.21,2.29.32t2.33.11a3.22,3.22,0,0,0,1.94-.45,2.06,2.06,0,0,0,.58-1.71,3.21,3.21,0,0,0-.09-.78,2.35,2.35,0,0,0-.49-.86,10.76,10.76,0,0,0-1.26-1.23q-.85-.74-2.38-1.91a11.72,11.72,0,0,1-1.56-1.37,6.41,6.41,0,0,1-.95-1.27,4.25,4.25,0,0,1-.46-1.3,8.32,8.32,0,0,1-.12-1.46,6.51,6.51,0,0,1,.42-2.5,3.6,3.6,0,0,1,1.24-1.59,5.25,5.25,0,0,1,2.06-.82,15,15,0,0,1,2.85-.24q.63,0,1.33,0t1.35.13q.64.09,1.15.2a4.11,4.11,0,0,1,.78.22.3.3,0,0,1,.15.27l-.18,2.61A.16.16,0,0,1,174.13,117Z" fill="#fff"/><path d="M197.8,133.7a.33.33,0,0,1-.33.24h-5.28q-.18,0-.24-.24-.24-1-.54-2.49l-.63-3q-.33-1.6-.66-3.25t-.6-3.12c0-.12-.12-.18-.3-.18s-.31.06-.33.18q-.27,1.47-.63,3.14t-.72,3.27q-.36,1.61-.71,3l-.58,2.46a.3.3,0,0,1-.33.24h-5.4q-.15,0-.21-.24l-.54-2.22q-.33-1.35-.69-2.9t-.74-3.19q-.37-1.65-.69-3.08t-.55-2.54q-.24-1.11-.33-1.62,0-.27.21-.27h3.78c.14,0,.21.09.21.27q.21,1.44.51,3.12t.61,3.36l.6,3.19q.28,1.52.52,2.63c0,.12.14.18.36.18s.34-.06.36-.18q.24-1.11.56-2.62t.65-3.19q.33-1.68.65-3.36t.55-3.12q.09-.27.3-.27h5.13c.12,0,.2.09.24.27q.24,1.44.56,3.12t.65,3.36q.33,1.68.65,3.19t.56,2.63c0,.12.14.18.36.18s.32-.06.36-.18l.57-2.62q.33-1.51.68-3.19t.66-3.36q.31-1.68.55-3.12.09-.27.3-.27h3.54c.12,0,.18.1.18.3s-.17.84-.34,1.58-.37,1.57-.6,2.52-.48,2-.75,3.06l-.79,3.19-.74,2.91Q198,132.8,197.8,133.7Z" fill="#fff"/><path d="M204.67,115.22a.27.27,0,0,1-.3-.3v-3a.27.27,0,0,1,.3-.3h3.51a.27.27,0,0,1,.3.3v3a.27.27,0,0,1-.3.3Zm.09,18.72a.26.26,0,0,1-.3-.3V118.19a.27.27,0,0,1,.3-.3h3.33a.27.27,0,0,1,.3.3v15.45a.27.27,0,0,1-.3.3Z" fill="#fff"/><path d="M212,133.91a.23.23,0,0,1-.18-.24l.15-2.61q0-.18.24-.12a16.78,16.78,0,0,0,1.71.24q1,.09,1.71.09a10.68,10.68,0,0,0,1.29-.06,1.62,1.62,0,0,0,.74-.24.88.88,0,0,0,.34-.51,3.53,3.53,0,0,0,.09-.9,1.57,1.57,0,0,0-.12-.62,2,2,0,0,0-.43-.6,8.61,8.61,0,0,0-.87-.74q-.56-.42-1.46-1t-1.53-1.1a6.07,6.07,0,0,1-1-1,3.1,3.1,0,0,1-.55-1.07,4.75,4.75,0,0,1-.17-1.32q0-2.55,1.38-3.54a7.49,7.49,0,0,1,4.32-1q1.08,0,2.2.09a14,14,0,0,1,1.82.24.21.21,0,0,1,.15.21l-.18,2.67a.13.13,0,0,1-.06.1.16.16,0,0,1-.15,0q-.69-.12-1.54-.21a14.78,14.78,0,0,0-1.51-.09,5.86,5.86,0,0,0-2,.23q-.56.22-.56,1.18a1.73,1.73,0,0,0,.12.67,1.8,1.8,0,0,0,.44.58,6.73,6.73,0,0,0,.87.68q.55.38,1.45.92a15.76,15.76,0,0,1,1.64,1.17,6.09,6.09,0,0,1,1,1.08,3.33,3.33,0,0,1,.54,1.13,5.09,5.09,0,0,1,.15,1.27,6.07,6.07,0,0,1-.39,2.36,3.33,3.33,0,0,1-1.12,1.44,4.44,4.44,0,0,1-1.83.72,14.33,14.33,0,0,1-2.48.19q-1.26,0-2.4-.09A15.15,15.15,0,0,1,212,133.91Z" fill="#fff"/><path d="M224.62,133.91a.24.24,0,0,1-.18-.24l.15-2.61q0-.18.24-.12a16.7,16.7,0,0,0,1.71.24q1,.09,1.71.09a10.68,10.68,0,0,0,1.29-.06,1.61,1.61,0,0,0,.73-.24.89.89,0,0,0,.35-.51,3.58,3.58,0,0,0,.09-.9,1.57,1.57,0,0,0-.12-.62,2,2,0,0,0-.44-.6,8.7,8.7,0,0,0-.87-.74q-.56-.42-1.46-1t-1.53-1.1a6.08,6.08,0,0,1-1-1,3.1,3.1,0,0,1-.55-1.07,4.75,4.75,0,0,1-.17-1.32q0-2.55,1.38-3.54a7.5,7.5,0,0,1,4.32-1q1.08,0,2.21.09a14,14,0,0,1,1.81.24.21.21,0,0,1,.15.21l-.18,2.67a.13.13,0,0,1-.06.1.16.16,0,0,1-.15,0q-.69-.12-1.54-.21a14.77,14.77,0,0,0-1.51-.09,5.86,5.86,0,0,0-2,.23q-.56.22-.55,1.18a1.73,1.73,0,0,0,.12.67,1.78,1.78,0,0,0,.43.58,6.8,6.8,0,0,0,.87.68q.56.38,1.46.92A15.73,15.73,0,0,1,233,126a6.09,6.09,0,0,1,1,1.08,3.33,3.33,0,0,1,.54,1.13,5.14,5.14,0,0,1,.15,1.27,6.07,6.07,0,0,1-.39,2.36,3.31,3.31,0,0,1-1.12,1.44,4.44,4.44,0,0,1-1.83.72,14.31,14.31,0,0,1-2.47.19q-1.26,0-2.4-.09A15.13,15.13,0,0,1,224.62,133.91Z" fill="#fff"/><path d="M250.36,113.54a11.51,11.51,0,0,1,2.79.32,5.33,5.33,0,0,1,2.14,1,4.76,4.76,0,0,1,1.37,1.94,8.14,8.14,0,0,1,.48,3,9.38,9.38,0,0,1-.54,3.46,4.92,4.92,0,0,1-1.5,2.08,5.25,5.25,0,0,1-2.25,1,14.58,14.58,0,0,1-2.82.25h-1.41a.81.81,0,0,0-.34,0,.18.18,0,0,0-.08.17v6.78a.27.27,0,0,1-.3.3h-3.39a.26.26,0,0,1-.3-.3v-19.8a.27.27,0,0,1,.3-.3Zm-.51,10.11a6.88,6.88,0,0,0,1.54-.15,2.12,2.12,0,0,0,1-.55,2.47,2.47,0,0,0,.6-1.14,7.49,7.49,0,0,0,.2-1.87,2.84,2.84,0,0,0-3.33-3.51h-1.5a.19.19,0,0,0-.21.21v6.81a.19.19,0,0,0,.21.21Z" fill="#fff"/><path d="M266.5,133.94a7.21,7.21,0,0,1-1.06.22,9.4,9.4,0,0,1-1.25.08,4.31,4.31,0,0,1-2.82-.78,3.62,3.62,0,0,1-.93-2.88V112.22q0-.33.3-.33h3.33c.2,0,.3.11.3.33V130a1.3,1.3,0,0,0,.3,1,1.41,1.41,0,0,0,1,.27h1a.26.26,0,0,1,.3.3l-.09,2A.33.33,0,0,1,266.5,133.94Z" fill="#fff"/><path d="M274.24,120.74q-.81,0-1.9.09t-1.82.21a.92.92,0,0,1-.29,0,.18.18,0,0,1-.17-.17l-.21-2.31q-.06-.33.18-.42a15.77,15.77,0,0,1,2.29-.4,25.59,25.59,0,0,1,3-.17,11.15,11.15,0,0,1,2.49.25,5.25,5.25,0,0,1,1.89.81,3.51,3.51,0,0,1,1.18,1.47,5.51,5.51,0,0,1,.41,2.24v10.89a.43.43,0,0,1-.08.26.68.68,0,0,1-.31.19,8.55,8.55,0,0,1-1,.23c-.39.07-.82.12-1.27.17l-1.46.1q-.77,0-1.54,0a22.73,22.73,0,0,1-3.39-.21,5.53,5.53,0,0,1-2.16-.73,2.83,2.83,0,0,1-1.14-1.38,6,6,0,0,1-.33-2.14,9.84,9.84,0,0,1,.18-2,3,3,0,0,1,.72-1.44,3.94,3.94,0,0,1,1.54-1,12.3,12.3,0,0,1,2.66-.58l3.54-.45c.12,0,.18-.08.18-.18V123a1.92,1.92,0,0,0-.72-1.78A5.06,5.06,0,0,0,274.24,120.74Zm3.18,6.24a.16.16,0,0,0-.18-.18h-2a8.36,8.36,0,0,0-1.35.09,1.73,1.73,0,0,0-.87.38,1.53,1.53,0,0,0-.46.78,5.12,5.12,0,0,0-.13,1.3,5.33,5.33,0,0,0,.12,1.27,1.21,1.21,0,0,0,.45.71,1.91,1.91,0,0,0,.88.32,11.35,11.35,0,0,0,1.46.08c.34,0,.69,0,1.05,0a7.94,7.94,0,0,0,.84-.11c.14,0,.21-.11.21-.21Z" fill="#fff"/><path d="M292.45,134a10.39,10.39,0,0,1-1.16.19,11.06,11.06,0,0,1-1.27.08q-3.63,0-3.63-3.3V121.1a.16.16,0,0,0-.18-.18h-2.07a.27.27,0,0,1-.3-.3v-2.43a.27.27,0,0,1,.3-.3h2.07a.16.16,0,0,0,.18-.18V114a.27.27,0,0,1,.3-.3H290a.27.27,0,0,1,.3.3v3.75a.16.16,0,0,0,.18.18H293a.27.27,0,0,1,.3.3v2.43a.27.27,0,0,1-.3.3H290.5a.16.16,0,0,0-.18.18V130a1.34,1.34,0,0,0,.29,1,1.52,1.52,0,0,0,1,.25h.93a.27.27,0,0,1,.3.3l-.09,2A.35.35,0,0,1,292.45,134Z" fill="#fff"/><path d="M300.7,117.71a.16.16,0,0,0,.18.18h2.79a.27.27,0,0,1,.3.3v2.43a.27.27,0,0,1-.3.3h-2.79a.16.16,0,0,0-.18.18v12.54a.27.27,0,0,1-.3.3H297a.26.26,0,0,1-.3-.3V121.1a.16.16,0,0,0-.18-.18h-2.07a.27.27,0,0,1-.3-.3v-2.43a.27.27,0,0,1,.3-.3h2.07a.16.16,0,0,0,.18-.18v-1.35a6.17,6.17,0,0,1,.21-1.58,3.59,3.59,0,0,1,.76-1.44,4,4,0,0,1,1.58-1,7.24,7.24,0,0,1,2.64-.41,12.42,12.42,0,0,1,1.53.09,7.08,7.08,0,0,1,1,.18q.27.06.21.39l-.18,2.07q-.06.24-.36.18l-.71-.12a5.83,5.83,0,0,0-.86-.06,1.78,1.78,0,0,0-1.42.54,2.08,2.08,0,0,0-.46,1.41Z" fill="#fff"/><path d="M319.93,125.78a14.64,14.64,0,0,1-.52,4.07,7,7,0,0,1-1.4,2.77,4.73,4.73,0,0,1-2.08,1.25,11.06,11.06,0,0,1-3.13.38,10.58,10.58,0,0,1-3.09-.37,4.53,4.53,0,0,1-2-1.25,7.41,7.41,0,0,1-1.44-2.77,13.54,13.54,0,0,1-.57-4.07,13,13,0,0,1,.55-4,6.74,6.74,0,0,1,1.46-2.64,4.32,4.32,0,0,1,2.06-1.21,11.84,11.84,0,0,1,3.1-.34,11.61,11.61,0,0,1,3.12.34,4.52,4.52,0,0,1,2,1.21,7,7,0,0,1,1.4,2.66A13.5,13.5,0,0,1,319.93,125.78Zm-10.26,0a16.93,16.93,0,0,0,.24,3,3.92,3.92,0,0,0,.69,1.84,1.83,1.83,0,0,0,.77.5,4.55,4.55,0,0,0,1.42.17,5,5,0,0,0,1.51-.17,1.62,1.62,0,0,0,.74-.5,3.85,3.85,0,0,0,.67-1.84,18,18,0,0,0,.22-3,15.59,15.59,0,0,0-.22-2.86,3.85,3.85,0,0,0-.67-1.73,1.53,1.53,0,0,0-.74-.48,5.15,5.15,0,0,0-1.46-.15,5.29,5.29,0,0,0-1.48.15,1.73,1.73,0,0,0-.77.48,4,4,0,0,0-.69,1.73A14.66,14.66,0,0,0,309.67,125.75Z" fill="#fff"/><path d="M331.87,120.86a14.06,14.06,0,0,0-2.31-.18q-.36,0-.87,0a2.93,2.93,0,0,0-.87.2.37.37,0,0,0-.21.33v12.39q0,.36-.33.3H324a.26.26,0,0,1-.3-.3V118.52q0-.24.3-.3,1.14-.24,2.67-.44a23.53,23.53,0,0,1,3-.19q.75,0,1.29,0l1.14.09a.21.21,0,0,1,.18.24l-.15,2.76C332.08,120.83,332,120.88,331.87,120.86Z" fill="#fff"/><path d="M347.41,133.64a.27.27,0,0,1-.3.3h-3.33a.26.26,0,0,1-.3-.3V122.42a1.49,1.49,0,0,0-.68-1.43,3.89,3.89,0,0,0-1.87-.37c-.4,0-.81,0-1.25,0a6.87,6.87,0,0,0-1,.14q-.3.09-.3.33v12.51a.26.26,0,0,1-.3.3h-3.33a.26.26,0,0,1-.3-.3V118.52q0-.24.3-.3l1.23-.21q.75-.12,1.63-.21t1.79-.15q.9-.06,1.68-.06a19.66,19.66,0,0,1,2.43.15,4.73,4.73,0,0,1,1.92.6.54.54,0,0,0,.39,0,12.72,12.72,0,0,1,2.52-.57,19.76,19.76,0,0,1,2.31-.15,9.66,9.66,0,0,1,2.91.38,4.8,4.8,0,0,1,1.89,1.06,3.81,3.81,0,0,1,1,1.73,8.37,8.37,0,0,1,.3,2.32v10.56a.27.27,0,0,1-.3.3h-3.36a.26.26,0,0,1-.3-.3V123.35a2.76,2.76,0,0,0-.67-2.13,3.23,3.23,0,0,0-2.18-.6c-.36,0-.75,0-1.15,0a7.67,7.67,0,0,0-1,.14c-.22.06-.33.17-.33.33Z" fill="#fff"/><path d="M168.31,151.71a.16.16,0,0,0,.18.18h2.79a.27.27,0,0,1,.3.3v2.43a.27.27,0,0,1-.3.3h-2.79a.16.16,0,0,0-.18.18v12.54a.26.26,0,0,1-.3.3h-3.36a.26.26,0,0,1-.3-.3V155.1a.16.16,0,0,0-.18-.18H162.1a.27.27,0,0,1-.3-.3v-2.43a.27.27,0,0,1,.3-.3h2.07a.16.16,0,0,0,.18-.18v-1.35a6.15,6.15,0,0,1,.21-1.58,3.58,3.58,0,0,1,.77-1.44,4,4,0,0,1,1.57-1,7.24,7.24,0,0,1,2.64-.41,12.44,12.44,0,0,1,1.53.09,7.08,7.08,0,0,1,1,.18q.27.06.21.39l-.18,2.07q-.06.24-.36.18l-.71-.12a5.83,5.83,0,0,0-.85-.06,1.78,1.78,0,0,0-1.43.54,2.09,2.09,0,0,0-.46,1.41Z" fill="#fff"/><path d="M187.54,159.78a14.63,14.63,0,0,1-.52,4.07,7,7,0,0,1-1.4,2.77,4.73,4.73,0,0,1-2.08,1.25,11.06,11.06,0,0,1-3.13.38,10.58,10.58,0,0,1-3.09-.37,4.53,4.53,0,0,1-2-1.25,7.39,7.39,0,0,1-1.44-2.77,13.53,13.53,0,0,1-.57-4.07,13,13,0,0,1,.56-4,6.73,6.73,0,0,1,1.46-2.64,4.32,4.32,0,0,1,2.05-1.21,11.85,11.85,0,0,1,3.1-.34,11.61,11.61,0,0,1,3.12.34,4.52,4.52,0,0,1,2,1.21,7,7,0,0,1,1.4,2.66A13.5,13.5,0,0,1,187.54,159.78Zm-10.26,0a16.93,16.93,0,0,0,.24,3,3.93,3.93,0,0,0,.69,1.84,1.83,1.83,0,0,0,.77.5,4.55,4.55,0,0,0,1.43.17,5,5,0,0,0,1.51-.17,1.62,1.62,0,0,0,.74-.5,3.84,3.84,0,0,0,.67-1.84,18.06,18.06,0,0,0,.23-3,15.63,15.63,0,0,0-.23-2.86,3.85,3.85,0,0,0-.67-1.73,1.53,1.53,0,0,0-.74-.48,5.15,5.15,0,0,0-1.46-.15,5.3,5.3,0,0,0-1.48.15,1.72,1.72,0,0,0-.77.48,4,4,0,0,0-.69,1.73A14.66,14.66,0,0,0,177.28,159.75Z" fill="#fff"/><path d="M199.48,154.86a14,14,0,0,0-2.31-.18q-.36,0-.87,0a2.93,2.93,0,0,0-.87.2.37.37,0,0,0-.21.33v12.39q0,.36-.33.3h-3.3a.27.27,0,0,1-.3-.3V152.52q0-.24.3-.3,1.14-.24,2.67-.44a23.51,23.51,0,0,1,3-.19q.75,0,1.29,0l1.14.09a.21.21,0,0,1,.18.24l-.15,2.76C199.69,154.83,199.62,154.88,199.48,154.86Z" fill="#fff"/><path d="M218.68,151l-1-.18q-.56-.09-1.16-.13l-1.21-.08-1.1,0a2.87,2.87,0,0,0-1.89.48,2.08,2.08,0,0,0-.54,1.62,2.87,2.87,0,0,0,.11.81,2.1,2.1,0,0,0,.48.78,8.66,8.66,0,0,0,1.08,1q.7.56,1.88,1.39.93.66,1.65,1.28a7.41,7.41,0,0,1,1.21,1.3,5,5,0,0,1,.73,1.51,7,7,0,0,1,.24,1.94q0,2.91-1.48,4.17a6.54,6.54,0,0,1-4.33,1.26,30.06,30.06,0,0,1-3.29-.17,19.59,19.59,0,0,1-2.36-.37q-.27,0-.27-.24l.21-2.7a.19.19,0,0,1,.21-.21q1.14.21,2.29.32t2.33.11a3.22,3.22,0,0,0,1.93-.45,2.06,2.06,0,0,0,.58-1.71,3.23,3.23,0,0,0-.09-.78,2.35,2.35,0,0,0-.5-.86,10.71,10.71,0,0,0-1.26-1.23q-.86-.74-2.38-1.91a11.75,11.75,0,0,1-1.56-1.37,6.43,6.43,0,0,1-.95-1.27,4.27,4.27,0,0,1-.46-1.3,8.32,8.32,0,0,1-.12-1.45,6.5,6.5,0,0,1,.42-2.5,3.6,3.6,0,0,1,1.24-1.59,5.26,5.26,0,0,1,2.06-.82,15,15,0,0,1,2.85-.24q.63,0,1.33,0t1.35.13q.64.09,1.15.2a4.09,4.09,0,0,1,.78.22.3.3,0,0,1,.15.27l-.18,2.61A.16.16,0,0,1,218.68,151Z" fill="#fff"/><path d="M226.33,151.89a.27.27,0,0,1,.3.3v10a6.41,6.41,0,0,0,.13,1.44,1.83,1.83,0,0,0,.46.9,2,2,0,0,0,.93.48,6.34,6.34,0,0,0,1.5.15,10.17,10.17,0,0,0,2-.18c.18-.06.27-.16.27-.3V152.19a.26.26,0,0,1,.3-.3h3.3a.27.27,0,0,1,.3.3v15.12c0,.16-.1.26-.3.3q-1.23.24-2.89.44a26.82,26.82,0,0,1-3.08.19,15.27,15.27,0,0,1-3.3-.3,5,5,0,0,1-2.13-1,3.59,3.59,0,0,1-1.14-1.79,9.84,9.84,0,0,1-.33-2.76V152.19a.27.27,0,0,1,.3-.3Z" fill="#fff"/><path d="M239.38,167.91a.24.24,0,0,1-.18-.24l.15-2.61c0-.12.08-.16.24-.12a16.78,16.78,0,0,0,1.71.24q1,.09,1.71.09a10.66,10.66,0,0,0,1.29-.06A1.62,1.62,0,0,0,245,165a.88.88,0,0,0,.34-.51,3.53,3.53,0,0,0,.09-.9,1.59,1.59,0,0,0-.12-.62,2,2,0,0,0-.44-.6,8.61,8.61,0,0,0-.87-.74q-.56-.42-1.46-1t-1.53-1.1a6.08,6.08,0,0,1-1-1,3.1,3.1,0,0,1-.55-1.07,4.75,4.75,0,0,1-.17-1.32q0-2.55,1.38-3.54a7.49,7.49,0,0,1,4.32-1q1.08,0,2.21.09a14,14,0,0,1,1.81.24.21.21,0,0,1,.15.21L249,154.8a.13.13,0,0,1-.06.1.16.16,0,0,1-.15,0q-.69-.12-1.54-.21a14.77,14.77,0,0,0-1.51-.09,5.86,5.86,0,0,0-2,.23q-.56.22-.55,1.18a1.73,1.73,0,0,0,.12.67,1.8,1.8,0,0,0,.44.58,6.8,6.8,0,0,0,.87.68q.55.38,1.46.92a15.73,15.73,0,0,1,1.63,1.17,6.09,6.09,0,0,1,1,1.08,3.33,3.33,0,0,1,.54,1.13,5.14,5.14,0,0,1,.15,1.27,6.07,6.07,0,0,1-.39,2.36,3.31,3.31,0,0,1-1.12,1.44,4.44,4.44,0,0,1-1.83.72,14.32,14.32,0,0,1-2.47.19q-1.26,0-2.4-.09A15.15,15.15,0,0,1,239.38,167.91Z" fill="#fff"/><path d="M259.72,168a10.39,10.39,0,0,1-1.16.19,11.06,11.06,0,0,1-1.27.08q-3.63,0-3.63-3.3V155.1a.16.16,0,0,0-.18-.18h-2.07a.27.27,0,0,1-.3-.3v-2.43a.27.27,0,0,1,.3-.3h2.07a.16.16,0,0,0,.18-.18V148a.27.27,0,0,1,.3-.3h3.33a.27.27,0,0,1,.3.3v3.75a.16.16,0,0,0,.18.18h2.52a.27.27,0,0,1,.3.3v2.43a.27.27,0,0,1-.3.3h-2.52a.16.16,0,0,0-.18.18V164a1.34,1.34,0,0,0,.29,1,1.52,1.52,0,0,0,1,.25h.93a.27.27,0,0,1,.3.3l-.09,2A.35.35,0,0,1,259.72,168Z" fill="#fff"/><path d="M268,154.74q-.81,0-1.9.09t-1.82.21a.92.92,0,0,1-.29,0,.18.18,0,0,1-.17-.17l-.21-2.31q-.06-.33.18-.42a15.77,15.77,0,0,1,2.29-.4,25.59,25.59,0,0,1,3-.17,11.15,11.15,0,0,1,2.49.25,5.26,5.26,0,0,1,1.89.81,3.51,3.51,0,0,1,1.18,1.47,5.51,5.51,0,0,1,.41,2.24v10.89a.43.43,0,0,1-.08.26.68.68,0,0,1-.31.19,8.55,8.55,0,0,1-1,.23c-.39.07-.82.12-1.27.17l-1.46.1q-.77,0-1.54,0A22.73,22.73,0,0,1,266,168a5.53,5.53,0,0,1-2.16-.73,2.83,2.83,0,0,1-1.14-1.38,6,6,0,0,1-.33-2.14,9.84,9.84,0,0,1,.18-2,3,3,0,0,1,.72-1.44,3.94,3.94,0,0,1,1.54-1,12.3,12.3,0,0,1,2.66-.58l3.54-.45c.12,0,.18-.08.18-.18V157a1.92,1.92,0,0,0-.72-1.78A5.06,5.06,0,0,0,268,154.74Zm3.18,6.24a.16.16,0,0,0-.18-.18h-2a8.36,8.36,0,0,0-1.35.09,1.73,1.73,0,0,0-.87.38,1.53,1.53,0,0,0-.46.78,5.12,5.12,0,0,0-.13,1.3,5.33,5.33,0,0,0,.12,1.27,1.21,1.21,0,0,0,.45.71,1.91,1.91,0,0,0,.88.32,11.35,11.35,0,0,0,1.46.08c.34,0,.69,0,1.05,0a7.94,7.94,0,0,0,.84-.11c.14,0,.21-.11.21-.21Z" fill="#fff"/><path d="M279.61,149.22a.27.27,0,0,1-.3-.3v-3a.27.27,0,0,1,.3-.3h3.51a.27.27,0,0,1,.3.3v3a.27.27,0,0,1-.3.3Zm.09,18.72a.26.26,0,0,1-.3-.3V152.19a.27.27,0,0,1,.3-.3H283a.27.27,0,0,1,.3.3v15.45a.26.26,0,0,1-.3.3Z" fill="#fff"/><path d="M297.31,167.94a.26.26,0,0,1-.3-.3V157.5a7,7,0,0,0-.12-1.41,1.72,1.72,0,0,0-.44-.89,1.81,1.81,0,0,0-.88-.45,6.51,6.51,0,0,0-1.47-.14,9.64,9.64,0,0,0-2.13.18c-.2.06-.3.16-.3.3v12.54a.26.26,0,0,1-.3.3H288a.26.26,0,0,1-.3-.3V152.52q0-.24.3-.3l1.38-.21q.78-.12,1.62-.21t1.67-.15q.82-.06,1.54-.06a15.6,15.6,0,0,1,3.27.28,4.63,4.63,0,0,1,2.05.94,3.46,3.46,0,0,1,1.07,1.75,10.63,10.63,0,0,1,.3,2.75v10.32a.27.27,0,0,1-.3.3Z" fill="#fff"/><path d="M309.94,154.74q-.81,0-1.9.09t-1.82.21a.92.92,0,0,1-.29,0,.18.18,0,0,1-.17-.17l-.21-2.31q-.06-.33.18-.42a15.77,15.77,0,0,1,2.29-.4,25.59,25.59,0,0,1,3-.17,11.15,11.15,0,0,1,2.49.25,5.26,5.26,0,0,1,1.89.81,3.51,3.51,0,0,1,1.18,1.47,5.51,5.51,0,0,1,.41,2.24v10.89a.43.43,0,0,1-.08.26.68.68,0,0,1-.31.19,8.55,8.55,0,0,1-1,.23c-.39.07-.82.12-1.27.17l-1.46.1q-.77,0-1.54,0a22.73,22.73,0,0,1-3.39-.21,5.53,5.53,0,0,1-2.16-.73,2.83,2.83,0,0,1-1.14-1.38,6,6,0,0,1-.33-2.14,9.84,9.84,0,0,1,.18-2,3,3,0,0,1,.72-1.44,3.94,3.94,0,0,1,1.54-1,12.3,12.3,0,0,1,2.66-.58l3.54-.45c.12,0,.18-.08.18-.18V157a1.92,1.92,0,0,0-.72-1.78A5.06,5.06,0,0,0,309.94,154.74Zm3.18,6.24a.16.16,0,0,0-.18-.18h-2a8.36,8.36,0,0,0-1.35.09,1.73,1.73,0,0,0-.87.38,1.53,1.53,0,0,0-.46.78,5.12,5.12,0,0,0-.13,1.3,5.33,5.33,0,0,0,.12,1.27,1.21,1.21,0,0,0,.45.71,1.91,1.91,0,0,0,.88.32,11.35,11.35,0,0,0,1.46.08c.34,0,.69,0,1.05,0a7.94,7.94,0,0,0,.84-.11c.14,0,.21-.11.21-.21Z" fill="#fff"/><path d="M327.1,168.24q-.78,0-1.62,0c-.56,0-1.1-.07-1.62-.12s-1-.12-1.41-.19a4.4,4.4,0,0,1-1-.27c-.18-.08-.27-.19-.27-.33V146.19a.27.27,0,0,1,.3-.3h3.33a.27.27,0,0,1,.3.3v5.43a.21.21,0,0,0,.24.24l.48,0,.75-.07.89-.09c.31,0,.6,0,.88,0a8.73,8.73,0,0,1,3.06.46,4.54,4.54,0,0,1,2,1.43,5.93,5.93,0,0,1,1.1,2.43,16.09,16.09,0,0,1,.33,3.48,19.13,19.13,0,0,1-.34,3.87,6.47,6.47,0,0,1-1.21,2.75,5.28,5.28,0,0,1-2.37,1.65A11.22,11.22,0,0,1,327.1,168.24Zm-2-3.3a.41.41,0,0,0,0,.18.23.23,0,0,0,.17.12q.33.06.81.11c.32,0,.62,0,.9,0a5.58,5.58,0,0,0,1.92-.27,2.11,2.11,0,0,0,1.11-.93,4.57,4.57,0,0,0,.53-1.75,23.12,23.12,0,0,0,.13-2.75,17,17,0,0,0-.17-2.61,3.78,3.78,0,0,0-.57-1.59,2,2,0,0,0-1.09-.78,6,6,0,0,0-1.71-.21,7.68,7.68,0,0,0-1.11.08,4.05,4.05,0,0,0-.75.17.3.3,0,0,0-.21.33Z" fill="#fff"/><path d="M344.65,167.94a7.21,7.21,0,0,1-1.06.22,9.4,9.4,0,0,1-1.25.08,4.31,4.31,0,0,1-2.82-.78,3.62,3.62,0,0,1-.93-2.88V146.22q0-.33.3-.33h3.33c.2,0,.3.11.3.33V164a1.3,1.3,0,0,0,.3,1,1.41,1.41,0,0,0,1,.27h1a.26.26,0,0,1,.3.3l-.09,2A.33.33,0,0,1,344.65,167.94Z" fill="#fff"/><path d="M359.8,167.37a8.3,8.3,0,0,1-2.21.65,17.71,17.71,0,0,1-2.92.22,10.06,10.06,0,0,1-3.67-.58,5.79,5.79,0,0,1-2.38-1.67,6.37,6.37,0,0,1-1.28-2.61A14.39,14.39,0,0,1,347,160a9.69,9.69,0,0,1,1.74-6.21q1.74-2.16,5.43-2.16a8.14,8.14,0,0,1,3,.48,4.58,4.58,0,0,1,1.92,1.38,5.41,5.41,0,0,1,1,2.19,12.94,12.94,0,0,1,.3,2.91,9.76,9.76,0,0,1-.13,2,.63.63,0,0,1-.67.51H351.1a.16.16,0,0,0-.18.18,5.83,5.83,0,0,0,.29,2,2.81,2.81,0,0,0,.83,1.23,3.13,3.13,0,0,0,1.35.63,8.62,8.62,0,0,0,1.86.18,12.65,12.65,0,0,0,2.34-.23,13.58,13.58,0,0,0,1.89-.46.35.35,0,0,1,.33.15l.21,2.34A.29.29,0,0,1,359.8,167.37Zm-8.94-8.91c0,.14.06.21.18.21h5.55a.27.27,0,0,0,.25-.14,2,2,0,0,0,.08-.73,4.84,4.84,0,0,0-.57-2.6,2.53,2.53,0,0,0-2.28-.88,3.62,3.62,0,0,0-1.62.32,2.47,2.47,0,0,0-1,.87,3.33,3.33,0,0,0-.48,1.32A10.55,10.55,0,0,0,350.86,158.46Z" fill="#fff"/><path d="M171.55,181.54a6.93,6.93,0,0,1,3.72.9,6.42,6.42,0,0,1,2.25,2.36,9.8,9.8,0,0,1,1.1,3.28,23.77,23.77,0,0,1,0,7.33,9.79,9.79,0,0,1-1.1,3.27,6.43,6.43,0,0,1-2.25,2.35,6.92,6.92,0,0,1-3.72.9H164a.27.27,0,0,1-.3-.3v-19.8a.27.27,0,0,1,.3-.3Zm3.24,10.05a24.22,24.22,0,0,0-.15-2.81,7.51,7.51,0,0,0-.57-2.21,3.54,3.54,0,0,0-1.16-1.46,3.21,3.21,0,0,0-1.9-.52h-3.15a.16.16,0,0,0-.18.18v13.89c0,.12,0,.18.15.18H171a3.08,3.08,0,0,0,1.88-.54,3.6,3.6,0,0,0,1.16-1.51,8.15,8.15,0,0,0,.57-2.3A26,26,0,0,0,174.79,191.59Z" fill="#fff"/><path d="M195,201.37a8.3,8.3,0,0,1-2.21.65,17.71,17.71,0,0,1-2.93.22,10.06,10.06,0,0,1-3.67-.58,5.79,5.79,0,0,1-2.38-1.67,6.38,6.38,0,0,1-1.28-2.61,14.39,14.39,0,0,1-.37-3.42,9.69,9.69,0,0,1,1.74-6.21q1.74-2.16,5.43-2.16a8.14,8.14,0,0,1,3,.48,4.58,4.58,0,0,1,1.92,1.38,5.42,5.42,0,0,1,1,2.19,12.91,12.91,0,0,1,.3,2.91,9.76,9.76,0,0,1-.13,2,.63.63,0,0,1-.68.51h-8.46a.16.16,0,0,0-.18.18,5.83,5.83,0,0,0,.29,2,2.81,2.81,0,0,0,.83,1.23,3.14,3.14,0,0,0,1.35.63,8.62,8.62,0,0,0,1.86.18,12.66,12.66,0,0,0,2.34-.23,13.6,13.6,0,0,0,1.89-.46.35.35,0,0,1,.33.15l.21,2.34A.29.29,0,0,1,195,201.37Zm-8.94-8.91c0,.14.06.21.18.21h5.55a.27.27,0,0,0,.25-.14,2,2,0,0,0,.07-.73,4.83,4.83,0,0,0-.57-2.6,2.53,2.53,0,0,0-2.28-.88,3.62,3.62,0,0,0-1.62.32,2.47,2.47,0,0,0-1,.87,3.35,3.35,0,0,0-.48,1.32A10.55,10.55,0,0,0,186.07,192.46Z" fill="#fff"/><path d="M207.82,201.7a.48.48,0,0,1-.12.2.44.44,0,0,1-.24,0h-5.37a.24.24,0,0,1-.2-.09.8.8,0,0,1-.1-.15q-.3-.93-.69-2.31l-.82-2.92q-.44-1.55-.87-3.15t-.79-3q-.36-1.41-.63-2.5t-.36-1.64a.24.24,0,0,1,.27-.27h3.6q.21,0,.27.27.27,1.44.62,3.12t.72,3.36q.38,1.68.74,3.21t.66,2.67c0,.12.15.18.39.18s.4-.06.42-.18q.3-1.14.67-2.67t.75-3.21q.38-1.68.72-3.36t.61-3.12q0-.27.39-.27h3.3c.16,0,.24.1.24.3q-.09.54-.36,1.63t-.63,2.52q-.36,1.43-.79,3t-.87,3.15l-.83,2.91Q208.12,200.8,207.82,201.7Z" fill="#fff"/><path d="M226.87,201.37a8.31,8.31,0,0,1-2.21.65,17.72,17.72,0,0,1-2.93.22,10.06,10.06,0,0,1-3.67-.58,5.79,5.79,0,0,1-2.38-1.67,6.39,6.39,0,0,1-1.28-2.61A14.39,14.39,0,0,1,214,194a9.69,9.69,0,0,1,1.74-6.21q1.74-2.16,5.43-2.16a8.14,8.14,0,0,1,3,.48,4.59,4.59,0,0,1,1.92,1.38,5.42,5.42,0,0,1,1,2.19,12.88,12.88,0,0,1,.3,2.91,9.76,9.76,0,0,1-.13,2,.63.63,0,0,1-.67.51h-8.46a.16.16,0,0,0-.18.18,5.83,5.83,0,0,0,.29,2,2.82,2.82,0,0,0,.83,1.23,3.14,3.14,0,0,0,1.35.63,8.62,8.62,0,0,0,1.86.18,12.65,12.65,0,0,0,2.34-.23,13.63,13.63,0,0,0,1.89-.46.35.35,0,0,1,.33.15l.21,2.34A.29.29,0,0,1,226.87,201.37Zm-8.94-8.91c0,.14.06.21.18.21h5.55a.27.27,0,0,0,.25-.14,2.05,2.05,0,0,0,.07-.73,4.83,4.83,0,0,0-.57-2.6,2.53,2.53,0,0,0-2.28-.88,3.62,3.62,0,0,0-1.62.32,2.47,2.47,0,0,0-1,.87,3.35,3.35,0,0,0-.48,1.32A10.55,10.55,0,0,0,217.93,192.46Z" fill="#fff"/><path d="M237.19,201.94a7.21,7.21,0,0,1-1.06.22,9.4,9.4,0,0,1-1.24.08,4.31,4.31,0,0,1-2.82-.78,3.62,3.62,0,0,1-.93-2.88V180.22c0-.22.1-.33.3-.33h3.33c.2,0,.3.11.3.33V198a1.3,1.3,0,0,0,.3,1,1.42,1.42,0,0,0,1,.27h1a.27.27,0,0,1,.3.3l-.09,2A.33.33,0,0,1,237.19,201.94Z" fill="#fff"/><path d="M253.75,193.78a14.64,14.64,0,0,1-.52,4.07,7,7,0,0,1-1.4,2.77,4.73,4.73,0,0,1-2.08,1.25,11.06,11.06,0,0,1-3.13.38,10.58,10.58,0,0,1-3.09-.37,4.53,4.53,0,0,1-2-1.25,7.41,7.41,0,0,1-1.44-2.77,13.54,13.54,0,0,1-.57-4.07,13,13,0,0,1,.55-4,6.74,6.74,0,0,1,1.46-2.64,4.32,4.32,0,0,1,2.06-1.21,11.84,11.84,0,0,1,3.1-.34,11.61,11.61,0,0,1,3.12.34,4.52,4.52,0,0,1,2,1.21,7,7,0,0,1,1.4,2.66A13.5,13.5,0,0,1,253.75,193.78Zm-10.26,0a16.93,16.93,0,0,0,.24,3,3.92,3.92,0,0,0,.69,1.84,1.83,1.83,0,0,0,.77.5,4.55,4.55,0,0,0,1.42.17,5,5,0,0,0,1.51-.17,1.62,1.62,0,0,0,.74-.5,3.85,3.85,0,0,0,.67-1.84,18,18,0,0,0,.22-3,15.59,15.59,0,0,0-.22-2.86,3.85,3.85,0,0,0-.67-1.73,1.53,1.53,0,0,0-.74-.48,5.15,5.15,0,0,0-1.46-.15,5.29,5.29,0,0,0-1.48.15,1.73,1.73,0,0,0-.77.48,4,4,0,0,0-.69,1.73A14.66,14.66,0,0,0,243.49,193.75Z" fill="#fff"/><path d="M263.38,185.59a13.66,13.66,0,0,1,3.84.45,5.09,5.09,0,0,1,2.37,1.41,5.3,5.3,0,0,1,1.2,2.5,18.19,18.19,0,0,1,.33,3.74,16,16,0,0,1-.37,3.69,5.89,5.89,0,0,1-1.26,2.56,5.34,5.34,0,0,1-2.31,1.5,10.73,10.73,0,0,1-3.5.5l-1.12,0-.88,0a.21.21,0,0,0-.24.24V207a.27.27,0,0,1-.3.3H257.8a.27.27,0,0,1-.3-.3V186.55c0-.14.11-.25.33-.33a7,7,0,0,1,1.08-.27q.66-.12,1.41-.19c.5,0,1-.09,1.54-.12S262.9,185.59,263.38,185.59Zm-2,13.17a.26.26,0,0,0,.24.3,5,5,0,0,0,.87.1l.87,0a5.57,5.57,0,0,0,1.71-.23,2.13,2.13,0,0,0,1.11-.82,4.25,4.25,0,0,0,.61-1.67,15.75,15.75,0,0,0,.2-2.75,16.9,16.9,0,0,0-.17-2.62,3.75,3.75,0,0,0-.58-1.59,2.08,2.08,0,0,0-1.14-.8,6.55,6.55,0,0,0-1.8-.21,8.5,8.5,0,0,0-1,0l-.72.1a.24.24,0,0,0-.19.13.56.56,0,0,0,0,.23Z" fill="#fff"/><path d="M287.92,201.64a.27.27,0,0,1-.3.3h-3.33a.26.26,0,0,1-.3-.3V190.42a1.49,1.49,0,0,0-.68-1.43,3.89,3.89,0,0,0-1.87-.37c-.4,0-.81,0-1.25,0a6.87,6.87,0,0,0-1,.14q-.3.09-.3.33v12.51a.26.26,0,0,1-.3.3h-3.33a.26.26,0,0,1-.3-.3V186.52q0-.24.3-.3l1.23-.21q.75-.12,1.63-.21t1.79-.15q.9-.06,1.68-.06a19.66,19.66,0,0,1,2.43.15,4.73,4.73,0,0,1,1.92.6.54.54,0,0,0,.39,0,12.72,12.72,0,0,1,2.52-.57,19.76,19.76,0,0,1,2.31-.15A9.66,9.66,0,0,1,294,186a4.8,4.8,0,0,1,1.89,1.06,3.81,3.81,0,0,1,1,1.73,8.37,8.37,0,0,1,.3,2.32v10.56a.27.27,0,0,1-.3.3h-3.36a.26.26,0,0,1-.3-.3V191.35a2.76,2.76,0,0,0-.67-2.13,3.23,3.23,0,0,0-2.18-.6c-.36,0-.75,0-1.15,0a7.67,7.67,0,0,0-1,.14c-.22.06-.33.17-.33.33Z" fill="#fff"/><path d="M313.63,201.37a8.3,8.3,0,0,1-2.21.65,17.71,17.71,0,0,1-2.92.22,10.06,10.06,0,0,1-3.67-.58,5.79,5.79,0,0,1-2.38-1.67,6.37,6.37,0,0,1-1.28-2.61,14.39,14.39,0,0,1-.37-3.42,9.69,9.69,0,0,1,1.74-6.21q1.74-2.16,5.43-2.16a8.14,8.14,0,0,1,3,.48,4.58,4.58,0,0,1,1.92,1.38,5.41,5.41,0,0,1,1,2.19,12.94,12.94,0,0,1,.3,2.91,9.76,9.76,0,0,1-.13,2,.63.63,0,0,1-.67.51h-8.46a.16.16,0,0,0-.18.18,5.83,5.83,0,0,0,.29,2,2.81,2.81,0,0,0,.83,1.23,3.13,3.13,0,0,0,1.35.63,8.62,8.62,0,0,0,1.86.18,12.65,12.65,0,0,0,2.34-.23,13.58,13.58,0,0,0,1.89-.46.35.35,0,0,1,.33.15l.21,2.34A.29.29,0,0,1,313.63,201.37Zm-8.94-8.91c0,.14.06.21.18.21h5.55a.27.27,0,0,0,.25-.14,2,2,0,0,0,.08-.73,4.84,4.84,0,0,0-.57-2.6,2.53,2.53,0,0,0-2.28-.88,3.62,3.62,0,0,0-1.62.32,2.47,2.47,0,0,0-1,.87,3.33,3.33,0,0,0-.48,1.32A10.55,10.55,0,0,0,304.69,192.46Z" fill="#fff"/><path d="M327.52,201.94a.26.26,0,0,1-.3-.3V191.5a7,7,0,0,0-.12-1.41,1.72,1.72,0,0,0-.44-.89,1.81,1.81,0,0,0-.88-.45,6.51,6.51,0,0,0-1.47-.14,9.64,9.64,0,0,0-2.13.18c-.2.06-.3.16-.3.3v12.54a.26.26,0,0,1-.3.3h-3.33a.26.26,0,0,1-.3-.3V186.52q0-.24.3-.3l1.38-.21q.78-.12,1.62-.21t1.67-.15q.82-.06,1.54-.06a15.6,15.6,0,0,1,3.27.28,4.63,4.63,0,0,1,2.05.95,3.46,3.46,0,0,1,1.07,1.75,10.63,10.63,0,0,1,.3,2.75v10.32a.27.27,0,0,1-.3.3Z" fill="#fff"/><path d="M342.22,202a10.39,10.39,0,0,1-1.16.19,11.06,11.06,0,0,1-1.27.08q-3.63,0-3.63-3.3V189.1a.16.16,0,0,0-.18-.18h-2.07a.27.27,0,0,1-.3-.3v-2.43a.27.27,0,0,1,.3-.3H336a.16.16,0,0,0,.18-.18V182a.27.27,0,0,1,.3-.3h3.33a.27.27,0,0,1,.3.3v3.75a.16.16,0,0,0,.18.18h2.52a.27.27,0,0,1,.3.3v2.43a.27.27,0,0,1-.3.3h-2.52a.16.16,0,0,0-.18.18V198a1.34,1.34,0,0,0,.29,1,1.52,1.52,0,0,0,1,.25h.93a.27.27,0,0,1,.3.3l-.09,2A.35.35,0,0,1,342.22,202Z" fill="#fff"/><path d="M170.5,228.8q-.18-.33-.25-.44a.35.35,0,0,0-.23-.13h-2.1c-.16,0-.24.07-.24.21v7.2a.27.27,0,0,1-.3.3H164a.27.27,0,0,1-.3-.3v-19.8a.27.27,0,0,1,.3-.3h6.09a8.61,8.61,0,0,1,5.16,1.28q1.71,1.28,1.71,4.37a8.72,8.72,0,0,1-.54,3.33,4.68,4.68,0,0,1-2.1,2.19q-.3.27-.3.42a2.61,2.61,0,0,0,.48,1.17l4,7.35a.35.35,0,0,1,0,.21c0,.06-.07.09-.19.09h-4a.39.39,0,0,1-.36-.27Zm-1.14-3.27a3.47,3.47,0,0,0,2.67-.84,4.27,4.27,0,0,0,.75-2.85,7.56,7.56,0,0,0-.15-1.67A1.94,1.94,0,0,0,171,218.6a7.81,7.81,0,0,0-1.68-.15h-1.29a.72.72,0,0,0-.32,0,.15.15,0,0,0-.07.14v6.66a.22.22,0,0,0,.21.24Z" fill="#fff"/><path d="M193.54,235.37a8.3,8.3,0,0,1-2.21.65,17.71,17.71,0,0,1-2.93.22,10.06,10.06,0,0,1-3.67-.58,5.79,5.79,0,0,1-2.38-1.67,6.38,6.38,0,0,1-1.28-2.61,14.39,14.39,0,0,1-.37-3.42,9.69,9.69,0,0,1,1.74-6.21q1.74-2.16,5.43-2.16a8.14,8.14,0,0,1,3,.48,4.58,4.58,0,0,1,1.92,1.38,5.42,5.42,0,0,1,1,2.19,12.91,12.91,0,0,1,.3,2.91,9.76,9.76,0,0,1-.13,2,.63.63,0,0,1-.68.51h-8.46a.16.16,0,0,0-.18.18,5.83,5.83,0,0,0,.29,2,2.81,2.81,0,0,0,.83,1.23,3.14,3.14,0,0,0,1.35.63,8.62,8.62,0,0,0,1.86.18,12.66,12.66,0,0,0,2.34-.23,13.6,13.6,0,0,0,1.89-.46.35.35,0,0,1,.33.15l.21,2.34A.29.29,0,0,1,193.54,235.37Zm-8.94-8.91c0,.14.06.21.18.21h5.55a.27.27,0,0,0,.25-.14,2,2,0,0,0,.07-.73,4.83,4.83,0,0,0-.57-2.6,2.53,2.53,0,0,0-2.28-.88,3.62,3.62,0,0,0-1.62.32,2.47,2.47,0,0,0-1,.87,3.35,3.35,0,0,0-.48,1.32A10.55,10.55,0,0,0,184.6,226.46Z" fill="#fff"/><path d="M197.08,235.91a.24.24,0,0,1-.18-.24l.15-2.61q0-.18.24-.12a16.76,16.76,0,0,0,1.71.24q1,.09,1.71.09a10.68,10.68,0,0,0,1.29-.06,1.62,1.62,0,0,0,.74-.24.88.88,0,0,0,.34-.51,3.53,3.53,0,0,0,.09-.9,1.57,1.57,0,0,0-.12-.62,2,2,0,0,0-.43-.6,8.61,8.61,0,0,0-.87-.74q-.56-.42-1.46-1t-1.53-1.1a6.09,6.09,0,0,1-1-1,3.1,3.1,0,0,1-.55-1.07,4.75,4.75,0,0,1-.17-1.32q0-2.55,1.38-3.54a7.49,7.49,0,0,1,4.32-1q1.08,0,2.2.09a14,14,0,0,1,1.82.24.21.21,0,0,1,.15.21l-.18,2.67a.13.13,0,0,1-.06.1.16.16,0,0,1-.15,0q-.69-.12-1.54-.21a14.78,14.78,0,0,0-1.51-.09,5.86,5.86,0,0,0-2,.23q-.56.22-.56,1.18a1.73,1.73,0,0,0,.12.67,1.8,1.8,0,0,0,.44.58,6.73,6.73,0,0,0,.87.68q.55.38,1.45.92a15.76,15.76,0,0,1,1.64,1.17,6.09,6.09,0,0,1,1,1.08,3.33,3.33,0,0,1,.54,1.13,5.09,5.09,0,0,1,.15,1.27,6.07,6.07,0,0,1-.39,2.36,3.33,3.33,0,0,1-1.12,1.44,4.44,4.44,0,0,1-1.83.72,14.33,14.33,0,0,1-2.48.19q-1.26,0-2.4-.09A15.14,15.14,0,0,1,197.08,235.91Z" fill="#fff"/><path d="M222.76,235.37a8.31,8.31,0,0,1-2.21.65,17.72,17.72,0,0,1-2.93.22,10.06,10.06,0,0,1-3.67-.58,5.79,5.79,0,0,1-2.38-1.67,6.39,6.39,0,0,1-1.28-2.61,14.39,14.39,0,0,1-.37-3.42,9.69,9.69,0,0,1,1.74-6.21q1.74-2.16,5.43-2.16a8.14,8.14,0,0,1,3,.48,4.59,4.59,0,0,1,1.92,1.38,5.42,5.42,0,0,1,1,2.19,12.88,12.88,0,0,1,.3,2.91,9.76,9.76,0,0,1-.13,2,.63.63,0,0,1-.67.51h-8.46a.16.16,0,0,0-.18.18,5.83,5.83,0,0,0,.29,2,2.82,2.82,0,0,0,.83,1.23,3.14,3.14,0,0,0,1.35.63,8.62,8.62,0,0,0,1.86.18,12.65,12.65,0,0,0,2.34-.23,13.63,13.63,0,0,0,1.89-.46.35.35,0,0,1,.33.15l.21,2.34A.29.29,0,0,1,222.76,235.37Zm-8.94-8.91c0,.14.06.21.18.21h5.55a.27.27,0,0,0,.25-.14,2.05,2.05,0,0,0,.07-.73,4.83,4.83,0,0,0-.57-2.6,2.53,2.53,0,0,0-2.28-.88,3.62,3.62,0,0,0-1.62.32,2.47,2.47,0,0,0-1,.87,3.35,3.35,0,0,0-.48,1.32A10.55,10.55,0,0,0,213.82,226.46Z" fill="#fff"/><path d="M232,222.74q-.81,0-1.9.09t-1.82.21a.92.92,0,0,1-.29,0,.18.18,0,0,1-.17-.17l-.21-2.31q-.06-.33.18-.42a15.81,15.81,0,0,1,2.3-.4,25.58,25.58,0,0,1,3-.17,11.14,11.14,0,0,1,2.49.25,5.24,5.24,0,0,1,1.89.81,3.51,3.51,0,0,1,1.19,1.47,5.52,5.52,0,0,1,.4,2.24v10.89a.44.44,0,0,1-.07.26.69.69,0,0,1-.31.19,8.62,8.62,0,0,1-1,.23c-.39.07-.81.12-1.27.17l-1.46.1c-.51,0-1,0-1.54,0A22.72,22.72,0,0,1,230,236a5.53,5.53,0,0,1-2.16-.73,2.83,2.83,0,0,1-1.14-1.38,6,6,0,0,1-.33-2.14,9.77,9.77,0,0,1,.18-2,3,3,0,0,1,.72-1.44,4,4,0,0,1,1.55-1,12.29,12.29,0,0,1,2.65-.58l3.54-.45c.12,0,.18-.08.18-.18V225a1.93,1.93,0,0,0-.72-1.78A5.06,5.06,0,0,0,232,222.74Zm3.18,6.24a.16.16,0,0,0-.18-.18h-2a8.35,8.35,0,0,0-1.35.09,1.73,1.73,0,0,0-.87.38,1.53,1.53,0,0,0-.46.78,5.07,5.07,0,0,0-.14,1.3,5.32,5.32,0,0,0,.12,1.27,1.2,1.2,0,0,0,.45.71,1.91,1.91,0,0,0,.88.32,11.34,11.34,0,0,0,1.46.08c.34,0,.69,0,1.05,0a8,8,0,0,0,.84-.11c.14,0,.21-.11.21-.21Z" fill="#fff"/><path d="M251.41,222.86a14.06,14.06,0,0,0-2.31-.18q-.36,0-.87,0a2.93,2.93,0,0,0-.87.2.37.37,0,0,0-.21.33v12.39q0,.36-.33.3h-3.3a.26.26,0,0,1-.3-.3V220.52q0-.24.3-.3,1.14-.24,2.67-.44a23.53,23.53,0,0,1,3-.19q.75,0,1.29,0l1.14.09a.21.21,0,0,1,.18.24l-.15,2.76C251.62,222.83,251.55,222.88,251.41,222.86Z" fill="#fff"/><path d="M263.47,235.82a8.44,8.44,0,0,1-1.54.32,15.54,15.54,0,0,1-1.81.1,8,8,0,0,1-3.14-.54,4.91,4.91,0,0,1-2.05-1.58,6.78,6.78,0,0,1-1.14-2.58,15.59,15.59,0,0,1-.36-3.53,16.34,16.34,0,0,1,.34-3.51,7.22,7.22,0,0,1,1.13-2.66,5.06,5.06,0,0,1,2.06-1.68,7.49,7.49,0,0,1,3.13-.58,13.94,13.94,0,0,1,1.91.12,7.35,7.35,0,0,1,1.36.3.21.21,0,0,1,.15.21l-.12,2.58q0,.21-.24.12a9.5,9.5,0,0,0-1.08-.21,9,9,0,0,0-1.26-.09,4.19,4.19,0,0,0-1.56.25,2.05,2.05,0,0,0-1,.89,4.53,4.53,0,0,0-.53,1.68,18.86,18.86,0,0,0-.15,2.61,16.44,16.44,0,0,0,.15,2.44,4,4,0,0,0,.53,1.56,2.11,2.11,0,0,0,1,.84,4.27,4.27,0,0,0,1.59.25,9.88,9.88,0,0,0,1.21-.08,7.85,7.85,0,0,0,1.07-.19.55.55,0,0,1,.18,0q.09,0,.12.12l.18,2.58A.24.24,0,0,1,263.47,235.82Z" fill="#fff"/><path d="M266.62,214.19a.27.27,0,0,1,.3-.3h3.3a.27.27,0,0,1,.3.3v5.52c0,.16.11.24.33.24q.78-.15,1.7-.25a14.43,14.43,0,0,1,1.6-.1,10.88,10.88,0,0,1,2.63.27,3.82,3.82,0,0,1,1.74.92,3.69,3.69,0,0,1,1,1.72,10.41,10.41,0,0,1,.3,2.73v10.41a.27.27,0,0,1-.3.3h-3.33a.27.27,0,0,1-.3-.3V225.56a7,7,0,0,0-.12-1.41,1.91,1.91,0,0,0-.43-.92,1.67,1.67,0,0,0-.86-.48,5.94,5.94,0,0,0-1.41-.14q-.69,0-1.26,0a6.65,6.65,0,0,0-1,.14c-.2.06-.3.16-.3.3v12.54a.27.27,0,0,1-.3.3h-3.3a.26.26,0,0,1-.3-.3Z" fill="#fff"/></svg>